<?xml version="1.0" encoding="utf-8"?>
<!-- Generator: Adobe Illustrator 26.5.0, SVG Export Plug-In . SVG Version: 6.00 Build 0)  -->
<svg version="1.1" id="Layer_1" xmlns="http://www.w3.org/2000/svg" xmlns:xlink="http://www.w3.org/1999/xlink" x="0px" y="0px"
	 viewBox="0 0 500 500" style="enable-background:new 0 0 500 500;" xml:space="preserve">
<style type="text/css">
	.st0{fill:url(#Path_6018_00000131366199572493184160000005410904404896351663_);}
	.st1{fill:url(#Path_6019_00000085238502246997100340000009453603072475803786_);}
	.st2{fill:url(#Path_6020_00000022527033137079791990000015096746064844247690_);}
	.st3{fill:url(#Path_6021_00000006691485231002898630000013849896320643255700_);}
	.st4{fill:url(#Rectangle_1518_00000152243033308587731230000003953067862957770133_);}
	.st5{fill:url(#Rectangle_1519_00000177449953343506053140000001515575307551576224_);}
	.st6{fill:url(#Rectangle_1520_00000063611509886491152230000006116338307958631809_);}
	.st7{fill:url(#Rectangle_1521_00000044146852759157701160000005281977887348733618_);}
	.st8{fill:url(#Rectangle_1522_00000042018477605129223490000004693269938744598942_);}
	.st9{fill:url(#Rectangle_1523_00000147192729756580872060000004895193651454238132_);}
	.st10{fill:url(#Rectangle_1524_00000062911783501078705510000015652373785711116456_);}
	.st11{fill:url(#Rectangle_1525_00000133517950016782010010000008609209356853242033_);}
	.st12{fill:url(#Rectangle_1526_00000049927244760229078460000014009224508128730792_);}
	.st13{fill:url(#Rectangle_1527_00000059291343916624288630000016705337919438092454_);}
	.st14{fill:url(#Rectangle_1528_00000022522992290088585920000006932311228551673019_);}
	.st15{fill:url(#Rectangle_1529_00000147909274050941696550000011240546178211703940_);}
	.st16{fill:#CCCCCC;}
</style>
<g>
	<g id="Group_903_00000119801928778838825160000012872986363168593079_">
		
			<linearGradient id="Path_6018_00000015331608103246200090000001826352352510532526_" gradientUnits="userSpaceOnUse" x1="3.6813" y1="494.6116" x2="-1.0109" y2="504.993" gradientTransform="matrix(47.544 0 0 -49.1178 182.72 24757.7246)">
			<stop  offset="0" style="stop-color:#C047F3"/>
			<stop  offset="1" style="stop-color:#7D2BE9"/>
		</linearGradient>
		
			<path id="Path_6018_00000049214789088338080630000013086169411706480557_" style="fill:url(#Path_6018_00000015331608103246200090000001826352352510532526_);" d="
			M154.82,164.66c0-37.76,43.58-69.25,201.01-122.28c-79.05-58.45-190.51-41.75-248.95,37.3C84.23,110.32,72,147.41,72,185.51
			c0,36.65,13.44,76.63,32.96,115.22c20.3-4.78,39.63-9.75,57.26-14.86V254.4c0-0.04,0-0.08,0-0.13c0.01-0.04,0.02-0.08,0.03-0.13
			l25.03-20.65l25.07,20.65c0.04,0.08,0.05,0.17,0.05,0.26v14.5c29.46-11.99,47.48-24.61,47.16-37.56
			C258.76,201.21,154.82,200.08,154.82,164.66z M222.07,251.4l-2.7,3.21c-0.23,0.28-0.56,0.45-0.91,0.48h-0.13
			c-0.33,0.01-0.66-0.09-0.91-0.3l-30.14-25.13l-30.1,25.14c-0.3,0.22-0.68,0.33-1.06,0.3c-0.35-0.04-0.68-0.21-0.91-0.48l-2.7-3.21
			c-0.23-0.29-0.34-0.66-0.3-1.03c0.02-0.37,0.2-0.71,0.48-0.93L184,223.37c0.94-0.75,2.11-1.15,3.31-1.12
			c1.2-0.03,2.37,0.37,3.31,1.12l10.63,8.88v-8.48c-0.02-0.38,0.13-0.75,0.4-1.01c0.26-0.26,0.63-0.4,1-0.39h8.36
			c0.73-0.03,1.35,0.54,1.38,1.27c0,0.04,0,0.09,0,0.13v17.76l9.55,7.93c0.29,0.23,0.46,0.57,0.48,0.93
			C222.43,250.76,222.31,251.12,222.07,251.4z"/>
		
			<linearGradient id="Path_6019_00000085209424521441706790000017365432782303274424_" gradientUnits="userSpaceOnUse" x1="167.5451" y1="314.4492" x2="48.0663" y2="478.7549" gradientTransform="matrix(1.867 0 0 -3.104 -27.285 1471.256)">
			<stop  offset="0" style="stop-color:#C047F3"/>
			<stop  offset="1" style="stop-color:#7D2BE9"/>
		</linearGradient>
		
			<path id="Path_6019_00000052788388803463088090000007402267329791099780_" style="fill:url(#Path_6019_00000085209424521441706790000017365432782303274424_);" d="
			M192.87,261.37v14.8c-3.58,1.25-7.32,2.49-11.15,3.73v-18.51L192.87,261.37z"/>
		
			<linearGradient id="Path_6020_00000002370488058002333780000006591172011182144425_" gradientUnits="userSpaceOnUse" x1="2.8085" y1="498.9645" x2="-1.5614" y2="505.7342" gradientTransform="matrix(51.032 0 0 -75.302 208.7609 38039.0703)">
			<stop  offset="0" style="stop-color:#C047F3"/>
			<stop  offset="1" style="stop-color:#7D2BE9"/>
		</linearGradient>
		
			<path id="Path_6020_00000067228871032364744420000003135190887466482589_" style="fill:url(#Path_6020_00000002370488058002333780000006591172011182144425_);" d="
			M428,185.49c0,139.05-178.01,307.01-178.01,307.01c-1.47,0-34.03-31.77-70.87-78.45l-55.78,20.5
			c18.16-9.31,35.1-18.27,50.81-26.86c163.97-89.59,199.66-141.73,193.23-174.25c-5.92-29.85-31.04-45.55-58.61-56.5v-41.59h-9.09
			v27.63h2.72v11.53c-1.44-0.54-2.91-1.07-4.35-1.59v-41.05h-18.21v34.95l-4.33-1.4v-2.42h2.72v-27.63h-9.09v27.99
			c-22.73-7.5-41.04-14.81-43.51-28.24c-5.65-30.7,58.33-64.99,130.99-92.16C401.59,76.54,428.05,129.38,428,185.49z"/>
		
			<linearGradient id="Path_6021_00000034780516841436055430000001143474336593482399_" gradientUnits="userSpaceOnUse" x1="605.8339" y1="104.1239" x2="289.3591" y2="470.8761" gradientTransform="matrix(0.7 0 0 -1.39 -15.5049 585.6555)">
			<stop  offset="0" style="stop-color:#C047F3"/>
			<stop  offset="1" style="stop-color:#7D2BE9"/>
		</linearGradient>
		
			<path id="Path_6021_00000011736382254235025750000009425985951602077328_" style="fill:url(#Path_6021_00000034780516841436055430000001143474336593482399_);" d="
			M291.06,162.22v8.3c-1.4-0.48-2.81-0.95-4.18-1.4v-6.9H291.06z"/>
		
			<linearGradient id="Rectangle_1518_00000154413685275550252430000015686489897944915344_" gradientUnits="userSpaceOnUse" x1="619.8135" y1="-144.4062" x2="303.3386" y2="449.9789" gradientTransform="matrix(0.705 0 0 -0.858 -14.917 311.613)">
			<stop  offset="0" style="stop-color:#C047F3"/>
			<stop  offset="1" style="stop-color:#7D2BE9"/>
		</linearGradient>
		
			<rect id="Rectangle_1518_00000073001114445824468460000013668479469538333843_" x="290.25" y="136.49" style="fill:url(#Rectangle_1518_00000154413685275550252430000015686489897944915344_);" width="4.21" height="5.12"/>
		
			<linearGradient id="Rectangle_1519_00000068641553166599219630000011943982813260091554_" gradientUnits="userSpaceOnUse" x1="613.3735" y1="-147.3018" x2="296.8986" y2="447.0893" gradientTransform="matrix(0.705 0 0 -0.858 -16.049 311.613)">
			<stop  offset="0" style="stop-color:#C047F3"/>
			<stop  offset="1" style="stop-color:#7D2BE9"/>
		</linearGradient>
		
			<rect id="Rectangle_1519_00000015354862789643421100000003824043721540936088_" x="283.49" y="136.49" style="fill:url(#Rectangle_1519_00000068641553166599219630000011943982813260091554_);" width="4.21" height="5.12"/>
		
			<linearGradient id="Rectangle_1520_00000046332854836280039860000004871287621668297890_" gradientUnits="userSpaceOnUse" x1="609.0776" y1="-145.0769" x2="292.6027" y2="447.4516" gradientTransform="matrix(0.705 0 0 -0.861 -16.049 314.514)">
			<stop  offset="0" style="stop-color:#C047F3"/>
			<stop  offset="1" style="stop-color:#7D2BE9"/>
		</linearGradient>
		
			<rect id="Rectangle_1520_00000161632922605870955930000000342473838708083386_" x="283.49" y="144.73" style="fill:url(#Rectangle_1520_00000046332854836280039860000004871287621668297890_);" width="4.21" height="5.14"/>
		
			<linearGradient id="Rectangle_1521_00000168831409660353941940000010718638164996304259_" gradientUnits="userSpaceOnUse" x1="615.5173" y1="-142.1934" x2="299.0424" y2="450.3351" gradientTransform="matrix(0.705 0 0 -0.861 -14.917 314.514)">
			<stop  offset="0" style="stop-color:#C047F3"/>
			<stop  offset="1" style="stop-color:#7D2BE9"/>
		</linearGradient>
		
			<rect id="Rectangle_1521_00000054239821731688897670000000480826031507019909_" x="290.25" y="144.73" style="fill:url(#Rectangle_1521_00000168831409660353941940000010718638164996304259_);" width="4.21" height="5.14"/>
		
			<linearGradient id="Rectangle_1522_00000003822393034466171480000002661488857303660714_" gradientUnits="userSpaceOnUse" x1="611.2232" y1="-144.274" x2="294.7484" y2="450.117" gradientTransform="matrix(0.705 0 0 -0.858 -14.917 314.375)">
			<stop  offset="0" style="stop-color:#C047F3"/>
			<stop  offset="1" style="stop-color:#7D2BE9"/>
		</linearGradient>
		
			<rect id="Rectangle_1522_00000173856462261177879110000001552361686189443765_" x="290.25" y="152.98" style="fill:url(#Rectangle_1522_00000003822393034466171480000002661488857303660714_);" width="4.21" height="5.12"/>
		
			<linearGradient id="Rectangle_1523_00000114766427400056248290000008784091607874807719_" gradientUnits="userSpaceOnUse" x1="604.7836" y1="-147.1634" x2="288.3087" y2="447.2216" gradientTransform="matrix(0.705 0 0 -0.858 -16.049 314.375)">
			<stop  offset="0" style="stop-color:#C047F3"/>
			<stop  offset="1" style="stop-color:#7D2BE9"/>
		</linearGradient>
		
			<rect id="Rectangle_1523_00000052789895692517713590000011362237714048411304_" x="283.49" y="152.98" style="fill:url(#Rectangle_1523_00000114766427400056248290000008784091607874807719_);" width="4.21" height="5.12"/>
		
			<linearGradient id="Rectangle_1524_00000025402080019031242040000012416783868664060305_" gradientUnits="userSpaceOnUse" x1="684.6198" y1="-201.4783" x2="336.2306" y2="450.1091" gradientTransform="matrix(0.64 0 0 -0.783 -13.33 276.619)">
			<stop  offset="0" style="stop-color:#C047F3"/>
			<stop  offset="1" style="stop-color:#7D2BE9"/>
		</linearGradient>
		
			<rect id="Rectangle_1524_00000047740504482114501220000010275382737871771839_" x="301.66" y="154.58" style="fill:url(#Rectangle_1524_00000025402080019031242040000012416783868664060305_);" width="3.82" height="4.67"/>
		
			<linearGradient id="Rectangle_1525_00000182516462455596181640000006007898788897725877_" gradientUnits="userSpaceOnUse" x1="688.9164" y1="-201.5485" x2="340.5332" y2="450.0389" gradientTransform="matrix(0.64 0 0 -0.783 -13.33 275.363)">
			<stop  offset="0" style="stop-color:#C047F3"/>
			<stop  offset="1" style="stop-color:#7D2BE9"/>
		</linearGradient>
		
			<rect id="Rectangle_1525_00000004529795777652731600000010380886532436852135_" x="301.66" y="147.08" style="fill:url(#Rectangle_1525_00000182516462455596181640000006007898788897725877_);" width="3.82" height="4.67"/>
		
			<linearGradient id="Rectangle_1526_00000036213255158485440070000002941540494137145231_" gradientUnits="userSpaceOnUse" x1="693.226" y1="-201.611" x2="344.8428" y2="449.9644" gradientTransform="matrix(0.64 0 0 -0.783 -13.33 274.104)">
			<stop  offset="0" style="stop-color:#C047F3"/>
			<stop  offset="1" style="stop-color:#7D2BE9"/>
		</linearGradient>
		
			<rect id="Rectangle_1526_00000132778558623231654160000001554452873791242414_" x="301.66" y="139.57" style="fill:url(#Rectangle_1526_00000036213255158485440070000002941540494137145231_);" width="3.82" height="4.67"/>
		
			<linearGradient id="Rectangle_1527_00000021821285961863338520000018086283069557794483_" gradientUnits="userSpaceOnUse" x1="650.9662" y1="-215.1796" x2="304.0397" y2="436.4077" gradientTransform="matrix(0.643 0 0 -0.783 -18.21 276.619)">
			<stop  offset="0" style="stop-color:#C047F3"/>
			<stop  offset="1" style="stop-color:#7D2BE9"/>
		</linearGradient>
		
			<rect id="Rectangle_1527_00000104683362311424831320000000029337566979407288_" x="272.44" y="154.58" style="fill:url(#Rectangle_1527_00000021821285961863338520000018086283069557794483_);" width="3.84" height="4.67"/>
		
			<linearGradient id="Rectangle_1528_00000107583235453522306580000000891486370858433465_" gradientUnits="userSpaceOnUse" x1="655.2474" y1="-215.2485" x2="308.3209" y2="436.3388" gradientTransform="matrix(0.643 0 0 -0.783 -18.21 275.363)">
			<stop  offset="0" style="stop-color:#C047F3"/>
			<stop  offset="1" style="stop-color:#7D2BE9"/>
		</linearGradient>
		
			<rect id="Rectangle_1528_00000180343638887695096350000000402010314960228263_" x="272.44" y="147.08" style="fill:url(#Rectangle_1528_00000107583235453522306580000000891486370858433465_);" width="3.84" height="4.67"/>
		
			<linearGradient id="Rectangle_1529_00000158748746172151192840000017879733463674448025_" gradientUnits="userSpaceOnUse" x1="659.5391" y1="-215.311" x2="312.6125" y2="436.2644" gradientTransform="matrix(0.643 0 0 -0.783 -18.21 274.104)">
			<stop  offset="0" style="stop-color:#C047F3"/>
			<stop  offset="1" style="stop-color:#7D2BE9"/>
		</linearGradient>
		
			<rect id="Rectangle_1529_00000056404891789992636330000015995829881529498299_" x="272.44" y="139.57" style="fill:url(#Rectangle_1529_00000158748746172151192840000017879733463674448025_);" width="3.84" height="4.67"/>
	</g>
	<g id="Group_904_00000118367745355464450970000003553001235090424215_" transform="translate(1.046 16.395)">
		<path id="Path_6022_00000136404647514107550590000006031109181011044016_" class="st16" d="M263.04,240.14
			c-0.01,5.33-2.42,10.37-6.57,13.73c-33.59,28.24-137.9,51.94-179.29,50.88c29.16-6.39,57.96-14.3,86.28-23.71l0,0
			c5.73-1.88,11.46-3.82,17.18-5.81c3.73-1.32,7.45-2.65,11.14-4c6.61-2.41,13.12-4.89,19.52-7.43
			C229.01,256.95,246.28,249.05,263.04,240.14z"/>
		<path id="Path_6023_00000129186954726279349130000006762768812417630377_" class="st16" d="M227.7,88.98
			c-13.57,6.05-39.66,19.62-49.97,35.37c-5.56,7.67-9.9,16.16-12.85,25.16c-2.15-7.36-1.08-15.28,2.96-21.8
			C176.57,111.78,204.73,96.86,227.7,88.98z"/>
		<path id="Path_6024_00000166647839270281631950000008059735138351223440_" class="st16" d="M358.22,230.1
			c-8.36-32.99-40.06-42.39-60.67-50.7c-46.22-18.7-56.75-21.82-77.56-38.1c-4.95-4.39-7.43-10.92-6.63-17.49
			c9.94,16.84,35.9,26.83,54.75,33.67c2.23,0.8,4.38,1.58,6.38,2.31c1.54,0.55,2.98,1.09,4.33,1.61c1.7,0.66,3.24,1.27,4.59,1.86
			c0.8,0.35,1.61,0.7,2.39,1.04c1.43,0.6,2.82,1.24,4.18,1.83c2.01,0.87,3.96,1.7,5.86,2.51c1.9,0.81,3.71,1.59,5.49,2.33l6.38,2.7
			c33.57,14.27,47.54,21.43,50.3,50.74C358.19,226.31,358.26,228.21,358.22,230.1z"/>
	</g>
</g>
</svg>
