<?xml version="1.0" encoding="UTF-8" standalone="no"?>
<!DOCTYPE svg PUBLIC "-//W3C//DTD SVG 1.0//EN"
"http://www.w3.org/TR/2001/REC-SVG-20010904/DTD/svg10.dtd">
<svg xmlns="http://www.w3.org/2000/svg" xmlns:xlink="http://www.w3.org/1999/xlink" width="36" height="36" viewBox="0 0 54 54">
  <defs>
    <filter id="Ellipse_219" x="0" y="0" width="54" height="54" filterUnits="userSpaceOnUse">
      <feOffset dy="3" input="SourceAlpha"/>
      <feGaussianBlur stdDeviation="3" result="blur"/>
      <feFlood flood-opacity="0.102"/>
      <feComposite operator="in" in2="blur"/>
      <feComposite in="SourceGraphic"/>
    </filter>
  </defs>
  <g id="Group_790" data-name="Group 790" transform="translate(-607 -353)">
    <g transform="matrix(1, 0, 0, 1, 607, 353)" filter="url(#Ellipse_219)">
      <circle id="Ellipse_219-2" data-name="Ellipse 219" cx="18" cy="18" r="18" transform="translate(9 6)" fill="#7d2be9"/>
    </g>
    <g id="Dollar_map_icon" transform="translate(596 273)">
      <rect id="Rectangle_38" data-name="Rectangle 38" width="24" height="24" transform="translate(26 92)" fill="none"/>
      <path id="Path_10219" data-name="Path 10219" d="M.587-6.766a16.472,16.472,0,0,1,1.947.714A3.273,3.273,0,0,1,3.791-5.023,2.963,2.963,0,0,1,4.31-3.2a3.149,3.149,0,0,1-.451,1.64A3.223,3.223,0,0,1,2.508-.34,4.83,4.83,0,0,1,.3.119H.264v1.36H-.314V.085A4.658,4.658,0,0,1-3.069-.978a3.369,3.369,0,0,1-1.19-2.355h2.074a2.11,2.11,0,0,0,.553,1.207,2.166,2.166,0,0,0,1.317.68V-5.3a21.824,21.824,0,0,1-2.125-.74A3.364,3.364,0,0,1-3.732-7.055a2.9,2.9,0,0,1-.561-1.87,2.9,2.9,0,0,1,.5-1.683,3.308,3.308,0,0,1,1.4-1.139,4.98,4.98,0,0,1,2.074-.408V-13.6H.264v1.462a4.366,4.366,0,0,1,2.652.986A3.33,3.33,0,0,1,4.054-8.959H1.964a1.966,1.966,0,0,0-.536-1.063,2.1,2.1,0,0,0-1.165-.586v3.74ZM-2.218-8.993a1.493,1.493,0,0,0,.493,1.182,4.292,4.292,0,0,0,1.411.756v-3.6a2.151,2.151,0,0,0-1.394.45A1.508,1.508,0,0,0-2.218-8.993Zm2.482,7.6a2.025,2.025,0,0,0,1.453-.493,1.66,1.66,0,0,0,.518-1.258,1.508,1.508,0,0,0-.51-1.216A4.487,4.487,0,0,0,.264-5.117Z" transform="translate(38 110)" fill="#fff"/>
    </g>
  </g>
</svg>
